<svg width="1920" height="63" viewBox="0 0 1920 63" fill="none" xmlns="http://www.w3.org/2000/svg">
<g clip-path="url(#clip0_2_100)">
<path d="M1679.84 1.49827C1599.84 -2.7011 1520.08 3.54412 1440.07 9.88876C1360.06 16.2333 1280.07 19.3974 1200.07 17.8154C1120.08 16.2333 1040.08 11.4707 960.083 12.4978C880.086 13.8479 800.087 21.7828 720.089 25.7502C640.218 29.7164 559.965 29.7164 480.095 25.7502C400.097 21.7911 320.099 13.8562 240.1 9.897C160.103 5.93785 79.878 5.92956 39.8789 5.92956H-0.120117V82.9596H1919.84V25.7171C1839.93 19.3477 1759.74 5.22552 1679.84 1.49827Z" fill="#F0F8FE"/>
</g>
<defs>
<clipPath id="clip0_2_100">
<rect width="1920" height="83" fill="white" transform="translate(-0.143066 0.0639648)"/>
</clipPath>
</defs>
</svg>
