<svg width="1920" height="110" viewBox="0 0 1920 110" fill="none" xmlns="http://www.w3.org/2000/svg">
<g clip-path="url(#clip0_2_121)">
<path d="M1679.98 3.70307C1599.98 -3.12723 1520.22 7.03066 1440.22 17.3502C1360.2 27.6698 1280.21 32.8161 1200.22 30.2429C1120.22 27.6698 1040.22 19.9234 960.227 21.5939C880.229 23.7898 800.23 36.696 720.233 43.1491C640.362 49.6001 560.109 49.6001 480.239 43.1491C400.24 36.7095 320.242 23.8033 240.244 17.3637C160.246 10.9241 80.0213 10.9106 40.0222 10.9106H0.0231934V136.2H1919.98V43.0952C1840.07 32.7353 1759.89 9.76548 1679.98 3.70307Z" fill="#FEFEFE"/>
</g>
<defs>
<clipPath id="clip0_2_121">
<rect width="1920" height="136" fill="white" transform="translate(0 0.97998)"/>
</clipPath>
</defs>
</svg>
