<svg width="16" height="16" viewBox="0 0 16 16" fill="none" xmlns="http://www.w3.org/2000/svg">
<g clip-path="url(#clip0_185_5)">
<path d="M2.99998 14.6668V11.3335M2.99998 4.66683V1.3335M1.33331 3.00016H4.66665M1.33331 13.0002H4.66665M8.66665 2.00016L7.51053 5.00607C7.32252 5.49489 7.22852 5.7393 7.08233 5.94489C6.95277 6.12709 6.79358 6.28629 6.61137 6.41585C6.40578 6.56203 6.16137 6.65604 5.67255 6.84404L2.66665 8.00016L5.67256 9.15628C6.16137 9.34429 6.40578 9.43829 6.61137 9.58448C6.79358 9.71404 6.95277 9.87323 7.08233 10.0554C7.22852 10.261 7.32252 10.5054 7.51053 10.9943L8.66665 14.0002L9.82277 10.9943C10.0108 10.5054 10.1048 10.261 10.251 10.0554C10.3805 9.87323 10.5397 9.71404 10.7219 9.58448C10.9275 9.43829 11.1719 9.34429 11.6607 9.15628L14.6666 8.00016L11.6607 6.84404C11.1719 6.65604 10.9275 6.56203 10.7219 6.41585C10.5397 6.28629 10.3805 6.12709 10.251 5.94489C10.1048 5.7393 10.0108 5.49489 9.82276 5.00607L8.66665 2.00016Z" stroke="white" stroke-linecap="round" stroke-linejoin="round"/>
</g>
<defs>
<clipPath id="clip0_185_5">
<rect width="16" height="16" fill="white"/>
</clipPath>
</defs>
</svg>